<svg width="18" height="16" viewBox="0 0 18 16" fill="none" xmlns="http://www.w3.org/2000/svg">
<path d="M4.8973 0C3.69934 0 2.63207 0.509912 1.82616 1.30804C1.04204 2.10616 0.541077 3.19249 0.541077 4.43402C0.541077 5.65337 1.04204 6.73971 1.82616 7.56L9.25353 15.12L16.6809 7.56C17.465 6.76188 17.966 5.67554 17.966 4.43402C17.966 3.21466 17.465 2.12833 16.6809 1.30804C15.8968 0.509912 14.8295 0 13.6098 0C12.4118 0 11.3445 0.509912 10.5386 1.30804C9.7545 2.10616 9.25353 3.19249 9.25353 4.43402C9.25353 3.21466 8.75257 2.12833 7.96845 1.30804C7.18432 0.509912 6.11705 0 4.8973 0Z" fill="#F9F4FD"/>
</svg>
