<svg width="30" height="30" viewBox="0 0 30 30" fill="none" xmlns="http://www.w3.org/2000/svg">
<g clip-path="url(#clip0_1_162)">
<rect width="30" height="30" rx="15" fill="#FEBA2F"/>
<path d="M11.8 18.8784V18.9215C11.7881 19.8333 11.0214 20.5189 9.49996 20.9784C11.3333 22.3117 13.1667 23.3784 15 23.3784C16.8333 23.3784 18.6667 22.3117 20.5 20.9784C18.9888 20.5184 18.2222 19.8317 18.2 18.9184C18.2 18.7556 18.2012 18.5244 18.2023 18.0903C18.2023 18.0214 18.2024 17.9508 18.2028 17.8785C18.3121 17.8939 18.3028 17.8841 18.2028 17.8563C18.2058 16.7144 18.2107 15.1789 18.2175 13.6184C19.6507 11.7607 19.1242 9.58281 18.6751 9.63711C18.1246 9.70421 13.3543 5.17741 12.4393 4.94531C11.5243 4.71321 9.19996 5.46251 8.79996 7.55001C8.39996 9.63751 8.23276 14.8993 9.74996 17C10.1817 17.5978 10.8617 17.8316 11.79 17.7015C11.7913 18.1384 11.7939 18.3836 11.8 18.8784Z" fill="#C17154"/>
<path d="M11.8 17.7C14 17.45 15.4 16.5 15.4 16.5C15.4 16.5 13.886 18.5117 11.8 18.9V17.7Z" fill="#9F553B"/>
<path d="M18.95 13.65C19.639 11.993 22.4 8.6183 20.02 6.5183C19.22 2.6183 14.8 3.05 11.85 3.95C9.86725 4.5549 8.36995 5.75 8.04995 4.85C6.04995 6.5183 7.05155 8.15 8.36995 8.6183C9.56655 9.0433 11.59 9.4683 15.0306 9.0683C15.6452 8.9968 15.5165 10.8791 15.8449 11.0826C16.3376 11.3879 16.72 9.4683 18.0708 10.0447C19.4216 10.6211 18.62 13.2937 17.17 13.2937C16.67 13.2937 16.42 14.6684 17.77 15.3184C18.75 15.8 18.5023 14.7267 18.95 13.65Z" fill="#40251D"/>
<path d="M25.5 24.0308C26.452 25.9665 27 30.4308 27 30.4308H3C3 30.4308 3.5482 25.966 4.5 24.0308C5.4518 22.0956 11.01 20.3007 11.01 20.3007C12.0813 22.5 17.9608 22.5 18.9871 20.3C18.9871 20.3 24.548 22.0951 25.5 24.0308Z" fill="#FD706B"/>
<mask id="mask0_1_162" style="mask-type:alpha" maskUnits="userSpaceOnUse" x="3" y="20" width="24" height="11">
<path d="M25.5 24.0308C26.452 25.9665 27 30.4308 27 30.4308H3C3 30.4308 3.5482 25.966 4.5 24.0308C5.4518 22.0956 11.01 20.3007 11.01 20.3007C12.0813 22.5 17.9608 22.5 18.9871 20.3C18.9871 20.3 24.548 22.0951 25.5 24.0308Z" fill="url(#paint0_linear_1_162)"/>
</mask>
<g mask="url(#mask0_1_162)">
<path d="M2 28.4V27.6H28V28.4H2ZM2 26.4V25.6H28V26.4H2ZM2 24.4V23.6H28V24.4H2Z" fill="#DD5752"/>
</g>
</g>
<circle cx="25.5" cy="25.5" r="4.5" fill="#22C55E"/>
<defs>
<linearGradient id="paint0_linear_1_162" x1="15" y1="30.4308" x2="15" y2="20.3" gradientUnits="userSpaceOnUse">
<stop stop-color="#E6864E"/>
<stop offset="1" stop-color="#E67240"/>
</linearGradient>
<clipPath id="clip0_1_162">
<rect width="30" height="30" rx="15" fill="white"/>
</clipPath>
</defs>
</svg>
